<?xml version="1.0" encoding="UTF-8"?>
<svg width="139px" height="36px" viewBox="0 0 139 36" version="1.1" xmlns="http://www.w3.org/2000/svg" xmlns:xlink="http://www.w3.org/1999/xlink">
    <!-- Generator: Sketch 46 (44423) - http://www.bohemiancoding.com/sketch -->
    <title>Logo</title>
    <desc>Created with Sketch.</desc>
    <defs>
        <path d="M103,0 L138,0 C138.552285,-1.01453063e-16 139,0.44771525 139,1 L139,23 C139,23.5522847 138.552285,24 138,24 L103,24 C102.447715,24 102,23.5522847 102,23 L102,1 L102,1 C102,0.44771525 102.447715,1.01453063e-16 103,0 L103,0 Z M118.638391,18.26988 L110.451342,18.26988 C110.344344,18.2642086 110.286509,18.2280264 110.277839,18.1613335 C110.269169,18.0946405 110.327003,18.0171368 110.451342,17.9288225 L117.950189,12.540094 C118.546032,11.915572 118.908923,11.3901836 119.038862,10.9639288 C119.1688,10.537674 119.271458,9.53585734 119.346836,7.95847884 C119.352606,6.7901236 119.080712,5.84551829 118.531153,5.12466289 C117.981594,4.40380749 117.025693,4.01925136 115.663449,3.97099451 L107.618459,3.97099451 L107.618459,6.49800082 C111.54767,6.49800082 113.752969,6.49800082 114.234357,6.49800082 C114.940542,6.57131403 115.325777,6.65586705 115.663449,7.01177628 C116.00112,7.3676855 116.107897,7.81942716 116.128982,8.49495363 C115.978263,10.1582355 115.833569,10.4499005 114.808814,11.4089175 C112.304034,13.1916892 109.860774,14.9187186 107.479035,16.5900054 C107.049862,16.9588389 106.779289,17.2842569 106.667314,17.5662593 C106.55534,17.8482618 106.499913,18.3214141 106.501033,18.9857162 C106.539259,19.5857235 106.675418,20.0125069 106.909512,20.2660664 C107.143607,20.5196258 107.547066,20.6993827 108.119891,20.8053371 L118.638391,20.8053371 L118.638391,18.26988 Z M133.757993,15.4110325 L133.757993,5.55885464 C133.757993,4.86147729 133.50211,4.36750604 132.990345,4.07694088 C132.020541,3.56884724 130.981564,3.69207747 129.873414,4.44663156 L121.416635,13.7168232 C121.117483,14.1028117 120.917667,14.461926 120.817186,14.7941662 C120.716706,15.1264063 120.694607,15.5014961 120.750889,15.9194356 C120.724997,16.3956607 120.864966,16.8570206 121.170796,17.3035155 C121.476626,17.7500104 121.941946,17.9687638 122.566756,17.9597757 L130.62152,17.9597757 L130.62152,20.7865819 L133.757993,20.7865819 L133.757993,17.9597757 L135.841982,17.9597757 L135.841982,15.4110325 L133.757993,15.4110325 Z M130.627426,15.4206823 L124.003786,15.4206823 C123.836365,15.3887524 123.738739,15.3294271 123.710907,15.2427063 C123.683075,15.1559855 123.705538,15.059639 123.778296,14.9536667 L130.417224,7.4437568 C130.460801,7.38981143 130.508865,7.37107992 130.561415,7.38756226 C130.613965,7.40404461 130.635969,7.43441835 130.627426,7.47868347 L130.627426,15.4206823 Z" id="path-1"></path>
    </defs>
    <g id="CardCompact" stroke="none" stroke-width="1" fill="none" fill-rule="evenodd">
        <g id="Cards-Copy-8" transform="translate(-484.000000, -711.000000)">
            <g id="Logo" transform="translate(484.000000, 711.000000)">
                <path d="M18.9603134,30.7142934 L18.9603134,21.4282082 C18.8672831,19.9073729 19.2634339,18.6771127 20.1487657,17.7374275 C21.0340976,16.7977424 22.3495283,16.3014982 24.0950576,16.248695 L26.7444956,16.248695 L26.7444956,18.7183006 L25.2253786,18.7183006 C23.935825,18.7672229 23.0817683,19.1655192 22.6632085,19.9131897 C22.1958803,20.5956867 22.0041516,21.635482 22.0880223,23.0325753 L22.0880223,30.7142934 L18.9603134,30.7142934 Z" id="Path-6" fill="#D8D8D8"></path>
                <path d="M43,35.1618214 C43,24.2421164 43,18.5616225 43,18.1203398 C43.0232131,17.5519427 43.1080279,17.1528073 43.6520758,16.6239224 C44.0147743,16.2713325 44.5899253,16.0823247 45.3775286,16.0568991 C48.2503431,15.9810336 50.1156849,15.9810336 50.9735538,16.0568991 C52.2603572,16.1706974 52.986274,16.4541238 53.5145625,16.7764967 C54.0001374,17.0728049 54.3281364,17.2110505 54.9060165,17.9706439 C55.4838965,18.7302373 55.5456792,18.8310989 55.83956,19.8737568 C56.1334408,20.9164147 56.048359,21.3823168 56.0873741,22.1619759 C56.1263893,22.941635 56.1592634,23.8574446 56.0873741,24.8259519 C56.0154849,25.7944592 55.8811733,26.2208618 55.748554,26.7266338 C55.6159348,27.2324059 55.5845286,27.4868264 55.2452726,28.0374875 C54.9060165,28.5881485 54.9060165,28.802802 53.7871479,29.6616362 C53.0412355,30.2341923 51.8447359,30.5166293 50.1976489,30.508947 L46.0979478,30.508947 L46.0979478,35.1618214 L43,35.1618214 Z M46,27.6403303 L49.7542493,27.6403303 C50.3925796,27.6403303 50.9011971,27.5011257 51.2801016,27.2227165 C51.8484584,26.8051028 51.9424321,26.6853632 52.2830488,26.1636019 C52.5613777,25.6577537 52.7372045,24.6128866 52.8105292,23.0290006 C52.8388775,22.2800269 52.8388775,21.7516836 52.8105292,21.4439708 C52.7680068,20.9824015 52.2444049,19.1500679 51.6361298,18.6855048 C51.0278547,18.2209417 50.8679579,18.2058068 49.88859,18.0666705 C49.0280148,17.9697831 48.2467706,17.971845 46.5866384,18.1170104 C46.3572747,18.1370664 46.233952,18.2529466 46.1338022,18.3772018 C46.0336523,18.501457 46.0374659,18.6168199 46,18.8024149 C45.9435827,21.7249439 45.9435827,24.6709157 46,27.6403303 Z" id="Combined-Shape" fill="#58585A"></path>
                <path d="M90.5826308,11.6294432 C90.5826308,22.5491483 90.5826308,28.2296422 90.5826308,28.6709249 C90.5594177,29.239322 90.4746028,29.6384574 89.930555,30.1673423 C89.5678565,30.5199322 88.9927055,30.70894 88.2051021,30.7343655 C85.3322876,30.8102311 83.4669459,30.8102311 82.609077,30.7343655 C81.3222736,30.6205672 80.5963568,30.3371409 80.0680683,30.014768 C79.5824933,29.7184598 79.2544943,29.5802142 78.6766143,28.8206208 C78.0987342,28.0610274 78.0369515,27.9601658 77.7430707,26.9175079 C77.44919,25.87485 77.5342717,25.4089479 77.4952566,24.6292888 C77.4562415,23.8496297 77.4233674,22.9338201 77.4952566,21.9653128 C77.5671458,20.9968055 77.7014575,20.5704029 77.8340767,20.0646308 C77.966696,19.5588588 77.9981021,19.3044383 78.3373582,18.7537772 C78.6766143,18.2031162 78.6766143,17.9884627 79.7954829,17.1296285 C80.5413952,16.5570723 81.7378949,16.2746354 83.3849818,16.2823177 L87.484683,16.2823177 L87.484683,11.6294432 L90.5826308,11.6294432 Z M87.425616,18.7188559 L83.4035332,18.7188559 C81.4389755,18.8462749 80.5141331,20.4611567 80.6290059,23.5635012 C80.5049783,26.5981589 81.4298208,28.1524686 83.4035332,28.2264303 C84.7613578,28.2264303 85.675028,28.2302644 86.1445438,28.2379327 C87.3764665,28.3169171 87.3962616,27.8100416 87.425616,27.343624 C87.425616,25.453115 87.425616,22.5781923 87.425616,18.7188559 Z" id="Combined-Shape" fill="#58585A"></path>
                <path d="M72.5435279,16.2585305 L75.6507069,16.2585305 L75.6507069,30.6983499 L72.5435279,30.6983499 L72.5435279,16.2585305 Z M72.5488868,14.1488282 L72.5488868,11.6222552 L75.642307,11.6222552 L75.642307,14.1488282 L72.5488868,14.1488282 Z" id="Combined-Shape" fill="#58585A"></path>
                <path d="M0.625638803,30.7022777 L0.625638803,14.0235182 C0.670501275,13.5483973 0.721226839,13.2237569 0.777815495,13.0495972 C0.872127414,12.7593387 1.02490019,12.5576501 1.18076096,12.4095218 C1.34393872,12.2544395 1.65066652,11.9714523 2.03750565,11.8237095 C2.24764329,11.7434532 2.62652558,11.6693634 3.17415253,11.6014402 L12.6506494,11.6014402 C13.1181883,11.6266784 13.3963401,11.6446595 13.4851048,11.6553834 C14.3801066,11.7635109 14.5425126,11.8629255 14.8000254,11.9645681 C15.4065891,12.2039841 16.4542305,13.0616911 16.8247738,14.1390872 C17.1462656,15.0738605 17.3070114,16.0611284 17.3070114,17.100891 C17.3289262,18.1838911 17.2841594,19.1182578 17.172711,19.903991 C17.0612626,20.6897242 16.8564696,21.3677712 16.558332,21.9381321 C16.1814473,22.6107908 15.7866613,23.0630646 15.373974,23.2949536 C15.0926019,23.4530565 14.7103492,23.6516947 14.0858057,23.7883789 C13.8914909,23.8309056 13.539078,23.8752816 13.0285671,23.9215068 L4.14015362,23.9215068 L4.14015362,30.7022777 L0.625638803,30.7022777 Z M4.14264741,21.0689103 L11.0718525,21.0689103 C11.2204146,21.0770008 11.3295975,21.0770008 11.3994013,21.0689103 C12.3704008,20.9563674 12.9273,20.5871243 13.16336,20.2603264 C13.4250237,19.8980832 13.6074075,19.3363312 13.7105114,18.5750704 L13.7105114,17.5301124 C13.6464896,16.7254527 13.5949376,16.237269 13.5558555,16.0655614 C13.5167734,15.8938537 13.4012971,15.6481967 13.2094265,15.3285902 C13.161047,15.1526107 12.9255471,14.9640204 12.5029269,14.7628193 C12.0803067,14.5616183 11.6290421,14.4723385 11.1491332,14.4949799 L4.77017212,14.4949799 C4.57624308,14.5244191 4.41991178,14.613699 4.3011782,14.7628193 C4.18244463,14.9119397 4.12960103,15.10053 4.14264741,15.3285902 L4.14264741,21.0689103 Z" id="Combined-Shape" fill="#D8D8D8"></path>
                <path d="M27.4832585,24.4437623 C27.4529951,23.8493901 27.4395149,23.4017386 27.442818,23.1008079 C27.446121,22.7998772 27.4699859,22.301416 27.5144124,21.6054241 C27.5659622,20.1457147 27.9116717,18.9959063 28.5515409,18.1559989 C29.1601553,17.3541766 30.0315437,16.8183253 31.165706,16.548445 C31.6446976,16.3975455 32.1616982,16.2958578 32.7167076,16.2433817 C33.2717171,16.1909057 34.0139237,16.1766495 34.9433274,16.2006132 C35.9986583,16.2487124 36.7779779,16.3205253 37.2812861,16.4160519 C37.7845944,16.5115784 38.3311546,16.7107333 38.9209667,17.0135164 C39.277628,17.19053 39.6221915,17.4834023 39.9546571,17.8921333 C40.1975376,18.1907291 40.277795,18.3184549 40.3425191,18.4341742 C40.4106908,18.5560576 40.4599087,18.6654277 40.5937724,18.9798867 C40.8547299,19.5929018 40.8890531,19.8305433 40.9698782,20.2769882 C41.0237616,20.5746182 41.0614637,21.0429872 41.0829845,21.6820951 L41.0829845,22.056473 C41.0405476,22.42414 41.0028455,22.6974505 40.9698782,22.8764045 C40.9369109,23.0553584 40.8922028,23.2293889 40.835754,23.398496 C40.7791183,23.5914436 40.6781395,23.7556385 40.5328175,23.8910808 C40.3148346,24.0942441 40.3238623,24.1672692 39.8954132,24.3523534 C39.6097805,24.4757429 39.3173098,24.5401121 39.0180009,24.5454611 L30.6903322,24.5454611 C30.6760206,25.0435317 30.6760206,25.3878373 30.6903322,25.578378 C30.7046438,25.7689187 30.7510053,26.0418566 30.8294166,26.3971917 C30.9248815,26.900536 31.1504446,27.3099354 31.5061059,27.62539 C31.8617671,27.9408445 32.4036193,28.1457528 33.1316624,28.240115 L40.5937724,28.240115 L40.5937724,30.7100578 L32.5743415,30.7100578 C31.6458608,30.7359582 30.9174303,30.650761 30.3890499,30.4544663 C29.8606695,30.2581716 29.3420055,29.8904095 28.8330579,29.3511802 C28.5084533,28.9550141 28.254367,28.5683409 28.0707989,28.1911605 C27.8872308,27.8139802 27.7567303,27.3782333 27.6792973,26.8839198 C27.5886312,26.3288333 27.5336696,25.9099112 27.5144124,25.6271536 C27.4951552,25.3443961 27.4847706,24.9499323 27.4832585,24.4437623 Z M30.6972173,22.0845986 L37.2073392,22.0845986 C37.4542144,22.0845986 37.6389038,21.9863555 37.7614073,21.7898693 C37.9451627,21.49514 37.8152924,20.6825256 37.6942749,20.4028473 C37.5732574,20.1231689 37.5100922,19.8055688 36.8676196,19.2593811 C36.4393045,18.895256 35.8482459,18.7047637 35.0944438,18.6879043 C34.6269813,18.6658377 34.27685,18.6548044 34.04405,18.6548044 C33.81125,18.6548044 33.506682,18.6658377 33.130346,18.6879043 C32.6554839,18.6905611 32.1515492,18.8995498 31.6185418,19.3148702 C30.8190308,19.937851 30.7386322,20.6582336 30.6972173,21.3657194 C30.6696074,21.8373766 30.6696074,22.077003 30.6972173,22.0845986 Z" id="Combined-Shape" fill="#D8D8D8"></path>
                <path d="M58.400515,18.712837 L58.400515,16.2554725 L66.7435761,16.2554725 C67.9346189,16.3616009 68.841577,16.7785933 69.4644504,17.5064499 C70.0873237,18.2343064 70.4013137,19.3147398 70.4064202,20.7477501 L70.4064202,28.5215124 C70.3741245,29.3672622 70.1445803,29.9437387 69.7177874,30.2509419 C69.2909944,30.5581452 68.6894973,30.7117468 67.9132958,30.7117468 L60.9923982,30.7117468 C59.9758849,30.7117468 59.2848019,30.5581452 58.9191492,30.2509419 C57.9558806,29.6751533 57.4589746,28.5215124 57.3753765,27.0028356 C57.2917785,25.4841588 57.4251262,24.7285558 57.5724458,24.0298618 C57.7197655,23.3311679 58.4673683,22.4280926 59.2723429,22.0491624 C59.8089926,21.7965424 60.3823444,21.6764773 60.9923982,21.6889674 L67.2838576,21.6889674 C67.358325,20.4769702 67.2125634,19.6782372 66.8465728,19.2927683 C66.5806502,18.9472979 66.1316788,18.7539875 65.4996587,18.712837 L58.400515,18.712837 Z M67.2800364,24.1766985 C64.8173725,24.1766985 63.0632512,24.1766985 62.0176724,24.1766985 C60.6624078,24.204929 60.5897613,25.304172 60.5911618,26.293621 C60.5925622,27.28307 60.7599015,28.1568461 62.0637473,28.2604842 C63.6822178,28.2604842 64.2808923,28.2604842 66.4857566,28.2604842 C67.0219316,28.2197312 67.1550249,28.0645668 67.2800364,27.7465719 C67.2800364,26.6322078 67.2800364,25.44225 67.2800364,24.1766985 Z" id="Combined-Shape" fill="#58585A"></path>
                <g id="Combined-Shape">
                    <use fill="#D8D8D8" fill-rule="evenodd" xlink:href="#path-1"></use>
                    <path d="M103,0 L138,0 C138.552285,-1.01453063e-16 139,0.44771525 139,1 L139,23 C139,23.5522847 138.552285,24 138,24 L103,24 C102.447715,24 102,23.5522847 102,23 L102,1 L102,1 C102,0.44771525 102.447715,1.01453063e-16 103,0 L103,0 Z M118.638391,18.26988 L110.451342,18.26988 C110.344344,18.2642086 110.286509,18.2280264 110.277839,18.1613335 C110.269169,18.0946405 110.327003,18.0171368 110.451342,17.9288225 L117.950189,12.540094 C118.546032,11.915572 118.908923,11.3901836 119.038862,10.9639288 C119.1688,10.537674 119.271458,9.53585734 119.346836,7.95847884 C119.352606,6.7901236 119.080712,5.84551829 118.531153,5.12466289 C117.981594,4.40380749 117.025693,4.01925136 115.663449,3.97099451 L107.618459,3.97099451 L107.618459,6.49800082 C111.54767,6.49800082 113.752969,6.49800082 114.234357,6.49800082 C114.940542,6.57131403 115.325777,6.65586705 115.663449,7.01177628 C116.00112,7.3676855 116.107897,7.81942716 116.128982,8.49495363 C115.978263,10.1582355 115.833569,10.4499005 114.808814,11.4089175 C112.304034,13.1916892 109.860774,14.9187186 107.479035,16.5900054 C107.049862,16.9588389 106.779289,17.2842569 106.667314,17.5662593 C106.55534,17.8482618 106.499913,18.3214141 106.501033,18.9857162 C106.539259,19.5857235 106.675418,20.0125069 106.909512,20.2660664 C107.143607,20.5196258 107.547066,20.6993827 108.119891,20.8053371 L118.638391,20.8053371 L118.638391,18.26988 Z M133.757993,15.4110325 L133.757993,5.55885464 C133.757993,4.86147729 133.50211,4.36750604 132.990345,4.07694088 C132.020541,3.56884724 130.981564,3.69207747 129.873414,4.44663156 L121.416635,13.7168232 C121.117483,14.1028117 120.917667,14.461926 120.817186,14.7941662 C120.716706,15.1264063 120.694607,15.5014961 120.750889,15.9194356 C120.724997,16.3956607 120.864966,16.8570206 121.170796,17.3035155 C121.476626,17.7500104 121.941946,17.9687638 122.566756,17.9597757 L130.62152,17.9597757 L130.62152,20.7865819 L133.757993,20.7865819 L133.757993,17.9597757 L135.841982,17.9597757 L135.841982,15.4110325 L133.757993,15.4110325 Z M130.627426,15.4206823 L124.003786,15.4206823 C123.836365,15.3887524 123.738739,15.3294271 123.710907,15.2427063 C123.683075,15.1559855 123.705538,15.059639 123.778296,14.9536667 L130.417224,7.4437568 C130.460801,7.38981143 130.508865,7.37107992 130.561415,7.38756226 C130.613965,7.40404461 130.635969,7.43441835 130.627426,7.47868347 L130.627426,15.4206823 Z"></path>
                </g>
                <path d="M100.471828,6.22953746 C98.7301623,6.22953746 97.1418306,6.22953746 95.7068334,6.22953746 C95.4293823,6.22953746 94.9699402,6.1459198 94.6046143,6.57189941 C94.3610636,6.85588582 94.2310656,7.15870667 94.2146201,7.48036194 L94.2146201,29.0027642 C94.2146201,29.9562495 94.7120245,30.4329921 95.7068334,30.4329921 C103.74847,30.3987339 115.200724,30.3987339 130.063594,30.4329921 C130.72772,30.2679831 131.123095,29.8813948 131.249719,29.2732272 C131.249719,28.0559745 131.249719,26.8210988 131.249719,25.5686001 C118.904686,25.5686001 109.217342,25.5686001 102.187688,25.5686001 C101.699274,25.5196077 100.471828,25.7048807 100.471828,24.0316933 C100.471828,18.6530216 100.471828,12.7189697 100.471828,6.22953746 Z" id="Path-16" fill="#707173"></path>
            </g>
        </g>
    </g>
</svg>